<svg id="Слой_1" data-name="Слой 1" xmlns="http://www.w3.org/2000/svg" viewBox="0 0 818.67 817.12"><defs><style>.cls-1{fill:#fff;stroke:#000;stroke-miterlimit:10;}.cls-2{fill:#386adb;}</style></defs><title>instagram-sketched</title><circle class="cls-1" cx="409.3" cy="408.56" r="408.56"/><path class="cls-2" d="M663.45,303.29c-1.19-27.15-5.58-45.81-11.87-62a130.86,130.86,0,0,0-74.77-74.76c-16.27-6.29-34.84-10.69-62-11.88-27.36-1.3-36-1.6-105.42-1.6s-78.06.3-105.31,1.5-45.82,5.59-62,11.87a130.91,130.91,0,0,0-74.77,74.77c-6.29,16.28-10.68,34.84-11.88,62-1.3,27.36-1.6,36-1.6,105.42s.3,78.06,1.5,105.31,5.59,45.82,11.88,62A130.93,130.93,0,0,0,242,650.68c16.27,6.29,34.83,10.68,62,11.88s35.94,1.5,105.31,1.5,78.07-.3,105.32-1.5,45.82-5.59,62-11.88a130.71,130.71,0,0,0,74.77-74.76c6.28-16.28,10.68-34.85,11.88-62s1.49-35.93,1.49-105.31S664.65,330.55,663.45,303.29Zm-46,208.64c-1.1,24.95-5.29,38.43-8.79,47.41a84.76,84.76,0,0,1-48.51,48.52c-9,3.49-22.56,7.69-47.42,8.78-27,1.2-35,1.5-103.22,1.5s-76.36-.3-103.22-1.5c-24.95-1.09-38.43-5.29-47.41-8.78a78.48,78.48,0,0,1-29.35-19.07,79.41,79.41,0,0,1-19.07-29.35c-3.49-9-7.68-22.56-8.78-47.41-1.2-26.95-1.5-35-1.5-103.22s.3-76.37,1.5-103.22c1.1-24.95,5.29-38.43,8.78-47.42a77.72,77.72,0,0,1,19.17-29.35A79.38,79.38,0,0,1,259,209.76c9-3.49,22.56-7.69,47.41-8.79,27-1.19,35-1.49,103.22-1.49s76.37.3,103.22,1.49c25,1.1,38.43,5.3,47.42,8.79a78.54,78.54,0,0,1,29.34,19.06,79.36,79.36,0,0,1,19.07,29.35c3.5,9,7.69,22.56,8.79,47.42,1.19,27,1.5,35,1.5,103.22S618.63,485,617.44,511.93Z"/><path class="cls-2" d="M409.4,277.34A131.27,131.27,0,1,0,540.67,408.61,131.3,131.3,0,0,0,409.4,277.34Zm0,216.42a85.15,85.15,0,1,1,85.15-85.15A85.17,85.17,0,0,1,409.4,493.76Z"/><path class="cls-2" d="M576.51,272.15a30.65,30.65,0,1,1-30.65-30.65A30.65,30.65,0,0,1,576.51,272.15Z"/></svg>