<?xml version="1.0" encoding="utf-8"?>
<!-- Generator: Adobe Illustrator 24.0.2, SVG Export Plug-In . SVG Version: 6.00 Build 0)  -->
<svg version="1.1" id="Слой_1" xmlns="http://www.w3.org/2000/svg" xmlns:xlink="http://www.w3.org/1999/xlink" x="0px" y="0px"
	 viewBox="0 0 818.7 817.1" style="enable-background:new 0 0 818.7 817.1;" xml:space="preserve">
<style type="text/css">
	.st0{fill:#386ADB;}
	.st1{fill:#FFFFFF;}
</style>
<g>
	<circle class="st0" cx="408.6" cy="408.6" r="408.6"/>
	<g>
		<g>
			<path class="st1" d="M474.4,811.8c-3.4,0.6-6.8,1.1-10.2,1.5C467.6,812.9,471,812.4,474.4,811.8z"/>
			<path class="st1" d="M482.6,810.4c-1.6,0.3-3.3,0.6-4.9,0.9C479.4,811,481,810.7,482.6,810.4z"/>
			<path class="st1" d="M455.1,814.5c-4,0.4-8,0.8-12,1.2C447.1,815.3,451.1,814.9,455.1,814.5z"/>
			<path class="st1" d="M462.9,813.5c-1.9,0.3-3.8,0.5-5.8,0.7C459.1,814,461,813.8,462.9,813.5z"/>
			<path class="st1" d="M493.7,808.2c-1.4,0.3-2.9,0.6-4.3,0.9C490.9,808.8,492.3,808.5,493.7,808.2z"/>
			<path class="st1" d="M521.3,801.3c-1.2,0.3-2.3,0.6-3.5,1C519,802,520.2,801.7,521.3,801.3z"/>
			<path class="st1" d="M513,803.6c-1.3,0.3-2.5,0.7-3.8,1C510.5,804.3,511.7,804,513,803.6z"/>
			<path class="st1" d="M502.1,806.3c-1.3,0.3-2.7,0.6-4,0.9C499.4,807,500.7,806.7,502.1,806.3z"/>
			<path class="st1" d="M442.9,815.7c-2.2,0.2-4.3,0.3-6.5,0.5C438.6,816,440.8,815.8,442.9,815.7z"/>
			<path class="st1" d="M817.1,408.6C817.1,183,634.2,0,408.6,0S0,183,0,408.6s183,408.6,408.6,408.6c2.4,0,4.8,0,7.2-0.1V499H328
				V396.7h87.8v-75.3c0-87.3,53.3-134.8,131.2-134.8c37.3,0,69.3,2.8,78.7,4v91.2h-53.7c-42.4,0-50.6,20.1-50.6,49.7v65.2h101.3
				L609.4,499h-88.1v302.4C692.1,752.4,817.1,595,817.1,408.6z"/>
			<path class="st1" d="M435.6,816.2c-4.3,0.3-8.5,0.5-12.8,0.6C427,816.7,431.3,816.5,435.6,816.2z"/>
			<path class="st1" d="M422.5,816.9c-2.3,0.1-4.5,0.1-6.8,0.2C418,817,420.3,816.9,422.5,816.9z"/>
		</g>
	</g>
</g>
</svg>
