<svg id="Layer_1" data-name="Layer 1" xmlns="http://www.w3.org/2000/svg" viewBox="0 0 458.75 454.61"><defs><style>.cls-1{fill:#ffd320;}</style></defs><title>2</title><path class="cls-1" d="M387.84,73.42A221.88,221.88,0,0,0,74.05,387.2,221.88,221.88,0,0,0,387.84,73.42ZM230.94,408.63c-98.33,0-178.32-80-178.32-178.32v-.6c0-.07,0-.14,0-.21C53.06,132.35,131.57,53.31,228.52,52l.61,0,.37,0L231,52c98.33,0,178.32,80,178.32,178.33S329.28,408.63,230.94,408.63Z"/><path class="cls-1" d="M366.4,241a13.13,13.13,0,1,1,0-26.26h15.82c-7.43-72.87-66.53-130.67-140-136.1V92.44a13.13,13.13,0,0,1-26.26,0V79A152.33,152.33,0,0,0,79.5,216.58H93.67a13.13,13.13,0,1,1,0,26.25H79.39a152.32,152.32,0,0,0,138.43,139V365.16a13.13,13.13,0,1,1,26.25,0V381.8c74.21-6.37,133.35-66.26,138.56-140.78Zm-82.31-45.29-43.86,43.86a13.12,13.12,0,0,1-18.57,0l-76.35-76.35a13.13,13.13,0,1,1,18.57-18.57L231,211.74l34.58-34.58a13.13,13.13,0,0,1,18.56,18.57Z"/></svg>