<?xml version="1.0" standalone="no"?>
<!DOCTYPE svg PUBLIC "-//W3C//DTD SVG 20010904//EN"
 "http://www.w3.org/TR/2001/REC-SVG-20010904/DTD/svg10.dtd">
<svg version="1.0" xmlns="http://www.w3.org/2000/svg"
 width="73.000000pt" height="73.000000pt" viewBox="0 0 73.000000 73.000000"
 preserveAspectRatio="xMidYMid meet">
<metadata>
Created by potrace 1.11, written by Peter Selinger 2001-2013
</metadata>
<g transform="translate(0.000000,73.000000) scale(0.100000,-0.100000)"
fill="#000000" stroke="none">
<path d="M176 696 c-7 -39 -54 -84 -95 -92 l-26 -5 2 -157 c2 -175 8 -200 68
-269 42 -49 207 -163 236 -163 28 0 151 77 204 127 25 24 58 63 73 85 27 41
27 43 27 211 0 169 0 170 -23 173 -40 7 -70 34 -88 80 l-17 44 -177 0 -178 0
-6 -34z m350 -51 c15 -24 43 -52 64 -64 l37 -21 -1 -137 c-2 -146 -8 -168 -58
-223 -33 -37 -105 -93 -159 -124 l-46 -26 -62 38 c-89 53 -156 115 -180 165
-18 37 -21 62 -21 180 0 114 2 137 15 137 21 0 81 56 95 89 l12 29 138 0 139
-1 27 -42z"/>
<path d="M277 573 c-9 -20 0 -38 21 -41 18 -3 22 1 22 22 0 19 -5 26 -19 26
-11 0 -22 -3 -24 -7z"/>
<path d="M409 573 c0 -4 -1 -38 -2 -75 -2 -56 1 -68 15 -72 24 -6 26 -1 29 79
2 65 1 70 -19 73 -12 2 -22 0 -23 -5z"/>
<path d="M207 512 c-15 -3 -17 -19 -17 -118 l0 -114 100 0 c79 0 100 3 100 14
0 18 -16 23 -70 20 -74 -5 -92 2 -88 34 2 19 9 28 26 30 19 3 22 0 18 -22 -4
-22 -1 -26 20 -26 19 0 24 5 24 25 0 25 1 25 90 25 75 0 92 -3 97 -16 7 -19
-10 -50 -26 -47 -6 2 -11 -6 -11 -17 0 -41 77 -9 84 35 5 27 -11 55 -31 55
-14 0 -13 4 5 23 12 13 22 31 22 40 0 23 -36 57 -60 57 -13 0 -20 -7 -20 -20
0 -11 7 -20 15 -20 9 0 15 -9 15 -25 0 -31 -24 -38 -111 -33 -58 3 -64 5 -69
28 -5 23 -12 26 -39 22 -4 -1 -8 -12 -7 -24 1 -16 -5 -24 -20 -26 -17 -2 -21
3 -22 33 l-1 35 79 0 c70 0 80 2 80 18 0 15 -11 17 -83 17 -46 0 -91 -1 -100
-3z"/>
<path d="M408 358 c-3 -11 -3 -94 1 -135 1 -7 10 -13 21 -13 18 0 20 7 20 80
0 72 -2 80 -19 80 -10 0 -21 -6 -23 -12z"/>
<path d="M284 258 c-3 -4 -7 -17 -9 -28 -3 -16 2 -20 21 -20 20 0 24 5 24 28
0 28 -23 41 -36 20z"/>
</g>
</svg>
