<?xml version="1.0" encoding="utf-8"?>
<!-- Generator: Adobe Illustrator 24.0.2, SVG Export Plug-In . SVG Version: 6.00 Build 0)  -->
<svg version="1.1" id="b75ffde3-65ff-4761-a8e9-ebaeba35e9db"
	 xmlns="http://www.w3.org/2000/svg" xmlns:xlink="http://www.w3.org/1999/xlink" x="0px" y="0px" viewBox="0 0 235.5 68.5"
	 style="enable-background:new 0 0 235.5 68.5;" xml:space="preserve">
<style type="text/css">
	.st0{fill:url(#SVGID_1_);}
	.st1{fill:#492DD3;}
	.st2{fill:#34C3EC;}
	.st3{opacity:0.5;}
	.st4{fill:#007C7C;}
	.st5{enable-background:new    ;}
	.st6{fill:#FFFFFF;}
</style>
<linearGradient id="SVGID_1_" gradientUnits="userSpaceOnUse" x1="0" y1="31.75" x2="235.5" y2="31.75" gradientTransform="matrix(1 0 0 -1 0 70)">
	<stop  offset="0" style="stop-color:#6743DD"/>
	<stop  offset="1" style="stop-color:#34C3EC"/>
</linearGradient>
<path class="st0" d="M205.2,68.5H0V8h205.2c16.7,0,30.3,13.5,30.3,30.3l0,0C235.5,54.9,221.9,68.5,205.2,68.5z"/>
<path class="st1" d="M10.7,0C10.5,0.3,0,8,0,8h10.7V0z"/>
<g>
	<g>
		<ellipse class="st2" cx="200.8" cy="38.8" rx="22.3" ry="22.7"/>
	</g>
	<g class="st3">
		<ellipse class="st4" cx="200.8" cy="38.8" rx="22.3" ry="22.7"/>
	</g>
</g>
<g>
	<g class="st5">
		<path class="st6" d="M71.3,25.7v21h-2.8V30.3l-6.9,11.4h-0.4l-6.9-11.4v16.4h-2.8v-21h3.2l6.7,11.1l6.7-11.1H71.3z"/>
		<path class="st6" d="M88.2,44.8c-1.5,1.5-3.4,2.3-5.6,2.3s-4.1-0.8-5.6-2.3c-1.5-1.5-2.3-3.4-2.3-5.6s0.8-4.1,2.3-5.6
			c1.5-1.5,3.4-2.3,5.6-2.3s4.1,0.8,5.6,2.3c1.5,1.5,2.3,3.4,2.3,5.6S89.7,43.3,88.2,44.8z M82.6,44.6c1.5,0,2.8-0.5,3.8-1.5
			c1-1,1.5-2.3,1.5-3.8c0-1.5-0.5-2.8-1.5-3.8c-1-1-2.3-1.5-3.8-1.5c-1.5,0-2.7,0.5-3.8,1.5c-1,1-1.5,2.3-1.5,3.8
			c0,1.5,0.5,2.8,1.5,3.8C79.9,44,81.1,44.6,82.6,44.6z"/>
		<path class="st6" d="M105.9,44.2h2.1v6.5h-2.6v-4H94.1v4h-2.6v-6.5h1.8c1-1.3,1.4-3.2,1.4-5.5v-7h11.1V44.2z M96.4,44.2h7V34.1
			h-5.9v4.5C97.4,40.9,97.1,42.8,96.4,44.2z"/>
		<path class="st6" d="M120.7,31.7h2.8l-6.1,15.9c-0.6,1.7-1.5,3-2.7,3.9c-1.2,0.9-2.5,1.3-4,1.2v-2.4c1.8,0.1,3.2-0.9,4-3l0.2-0.5
			l-6.5-15h2.8l5.1,11.8L120.7,31.7z"/>
		<path class="st6" d="M137.2,31.7v15h-2.6V34.2h-5.9v6.1c0,2.5-0.5,4.2-1.5,5.1c-1,1-2.4,1.4-4.2,1.2v-2.5c1,0.1,1.8-0.1,2.3-0.7
			s0.8-1.7,0.8-3.3v-8.6H137.2z"/>
		<path class="st6" d="M147.5,37.1c1.5,0,2.7,0.4,3.7,1.3c1,0.9,1.5,2,1.5,3.5s-0.5,2.6-1.5,3.5c-1,0.9-2.2,1.3-3.7,1.3h-6.3v-15
			h2.6v5.4H147.5z M147.5,44.3c0.7,0,1.4-0.2,1.9-0.6c0.5-0.4,0.8-1,0.8-1.7s-0.3-1.3-0.8-1.7c-0.5-0.4-1.1-0.7-1.9-0.7h-3.7v4.8
			H147.5z"/>
	</g>
</g>
<g class="st5">
	<path class="st6" d="M208.9,41.9v4.2h-2.5v3.9h-4.6v-3.9H191v-4.2l7.7-14.9h4.9l-7.7,14.9h6v-5.5h4.6v5.5H208.9z"/>
</g>
</svg>
