<?xml version="1.0" encoding="utf-8"?>
<!-- Generator: Adobe Illustrator 24.0.2, SVG Export Plug-In . SVG Version: 6.00 Build 0)  -->
<svg version="1.1" xmlns="http://www.w3.org/2000/svg" xmlns:xlink="http://www.w3.org/1999/xlink" x="0px" y="0px"
	 viewBox="0 0 201.7 136.8" style="enable-background:new 0 0 201.7 136.8;" xml:space="preserve">
<style type="text/css">
	.st0{fill:#272A5C;}
	.st1{fill:#C41617;}
	.st2{fill:#FFFFFF;}
</style>
<g id="Layer_1">
	<g id="XMLID_2_">
		<g id="XMLID_644_">
			<g id="XMLID_764_">
				<path id="XMLID_769_" class="st1" d="M119.4,5.4c1.9,7.6,7.9,13.7,15.4,15.7v31.5c0,14.6-22.5,28.7-33.6,34.2
					c-11.1-5.5-33.6-19.6-33.6-34.2V21.1c7.5-2,13.4-8,15.4-15.7H119.4 M124.2,0H78.3c0,9-7.2,16.4-16,16.4c0,10.5,0,24.3,0,36.2
					c0,22.7,39,40.2,39,40.2s39-17.6,39-40.2c0-11.8,0-25.7,0-36.2C131.4,16.4,124.2,9,124.2,0L124.2,0z"/>
			</g>
			<g id="XMLID_645_">
				<g id="XMLID_647_">
					<path id="XMLID_668_" class="st2" d="M119.5,42.2c0.9-0.3,1.8-0.7,2.5-1.2c0.7-0.5,1.3-0.9,1.7-1.5c0.4-0.5,0.8-1.2,1-1.8
						c0.2-0.7,0.3-1.3,0.3-2c0-1.2-0.2-2.3-0.6-3.3c-0.4-1-1.1-1.8-2-2.5c-0.9-0.7-2.1-1.2-3.6-1.6c-1.2-0.3-2.6-0.5-4.3-0.5v4.3
						c1.5,0.1,2.6,0.4,3.3,1c0.9,0.7,1.4,1.7,1.4,3.3c0,1.5-0.5,2.6-1.5,3.3c-1,0.7-2.5,1-4.5,1H113l-17.1,0v-6.8h-5.8v6.9h-5.6
						v-8.6h20.3v-4.3H78.8v29.9h10.9h5.8h9v-4.3h-9h-5.8h-5.2v-8.8h5.6v7h5.8v-6.9l17.1,0h1.4c1,0,1.9,0.1,2.6,0.3
						c0.7,0.2,1.3,0.5,1.8,0.8c0.5,0.4,0.8,0.8,1,1.3c0.2,0.5,0.3,1.1,0.3,1.7c0,0.6-0.1,1.2-0.3,1.8c-0.2,0.5-0.5,1-0.9,1.4
						c-0.4,0.4-1,0.7-1.7,1c-0.7,0.2-1.6,0.4-2.7,0.4v4.3h0.1c1.8,0,3.4-0.2,4.8-0.7c1.4-0.5,2.6-1,3.5-1.8c0.9-0.8,1.7-1.7,2.2-2.8
						c0.5-1.1,0.8-2.2,0.8-3.5C125.9,45.4,123.7,43.1,119.5,42.2z"/>
					<polygon id="XMLID_667_" class="st2" points="95.9,25.4 95.9,25.4 95.9,19.4 90.1,19.4 90.1,23.5 90.1,25.1 90.1,26 95.9,26 
											"/>
					<polygon id="XMLID_666_" class="st2" points="112.6,25 112.6,23.5 112.6,19.4 106.7,19.4 106.7,23.5 106.7,25.9 106.7,38.9 
						112.6,38.9 					"/>
					<rect id="XMLID_659_" x="90.1" y="59.5" class="st2" width="5.8" height="7"/>
					<rect id="XMLID_653_" x="106.7" y="46.4" class="st2" width="5.9" height="20.1"/>
				</g>
			</g>
		</g>
		<g id="XMLID_464_">
			<path id="XMLID_640_" class="st2" d="M12.5,111.5c1.4-0.7,2.3-2.1,2.3-3.9c0-2.8-2.3-4.6-6.5-4.6H0v17.7h8.8
				c4.5,0,6.9-1.8,6.9-4.8C15.7,113.6,14.4,112.2,12.5,111.5z M7.9,105.6c2.3,0,3.6,0.8,3.6,2.4c0,1.6-1.3,2.4-3.6,2.4H3.3v-4.9H7.9
				z M8.6,118.2H3.3v-5.1h5.3c2.5,0,3.8,0.8,3.8,2.6S11,118.2,8.6,118.2z"/>
			<path id="XMLID_637_" class="st2" d="M35.7,120.7l-4.1-5.8c2.4-0.9,3.8-2.9,3.8-5.6c0-3.9-2.9-6.3-7.5-6.3h-7.3v17.7h3.3v-5.2h4
				c0.2,0,0.5,0,0.7,0l3.6,5.2H35.7z M32.1,109.3c0,2.2-1.5,3.5-4.4,3.5h-3.8v-7h3.8C30.6,105.8,32.1,107.1,32.1,109.3z"/>
			<path id="XMLID_626_" class="st2" d="M40.6,120.7h3.3v-17.7h-3.3V120.7z"/>
			<path id="XMLID_624_" class="st2" d="M53.7,120.7H57v-14.9h5.8v-2.8h-15v2.8h5.8V120.7z"/>
			<path id="XMLID_622_" class="st2" d="M66.8,120.7h3.3v-17.7h-3.3V120.7z"/>
			<path id="XMLID_620_" class="st2" d="M81.8,121c4.8,0,7.1-2.4,7.1-5.3c0-6.5-10.5-4-10.5-7.8c0-1.3,1.1-2.4,3.8-2.4
				c1.5,0,3.3,0.5,4.9,1.4l1-2.6c-1.5-1-3.8-1.6-5.9-1.6c-4.8,0-7.1,2.4-7.1,5.3c0,6.6,10.5,4.1,10.5,7.9c0,1.3-1.2,2.3-3.9,2.3
				c-2.2,0-4.4-0.8-5.8-1.9l-1.1,2.6C76.3,120.1,79.1,121,81.8,121z"/>
			<path id="XMLID_546_" class="st2" d="M106.1,103.1v7.3H97v-7.3h-3.3v17.7H97v-7.6h9.1v7.6h3.3v-17.7H106.1z"/>
			<path id="XMLID_544_" class="st2" d="M136.5,103.1v7.3h-9.1v-7.3h-3.3v17.7h3.3v-7.6h9.1v7.6h3.3v-17.7H136.5z"/>
			<path id="XMLID_542_" class="st2" d="M146,120.7h3.3v-17.7H146V120.7z"/>
			<path id="XMLID_516_" class="st2" d="M155.5,120.7H168V118h-9.2v-14.9h-3.3V120.7z"/>
			<path id="XMLID_514_" class="st2" d="M172.1,120.7h12.5V118h-9.2v-14.9h-3.3V120.7z"/>
			<path id="XMLID_512_" class="st2" d="M194.1,121c4.8,0,7.1-2.4,7.1-5.3c0-6.5-10.5-4-10.5-7.8c0-1.3,1.1-2.4,3.8-2.4
				c1.5,0,3.3,0.5,4.9,1.4l1-2.6c-1.5-1-3.8-1.6-5.9-1.6c-4.8,0-7.1,2.4-7.1,5.3c0,6.6,10.5,4.1,10.5,7.9c0,1.3-1.2,2.3-3.9,2.3
				c-2.2,0-4.4-0.8-5.8-1.9l-1.1,2.6C188.6,120.1,191.3,121,194.1,121z"/>
			<path id="XMLID_510_" class="st2" d="M0.6,136.8h6.2V136H1.6v-8.5h-1V136.8z"/>
			<path id="XMLID_507_" class="st2" d="M19.9,136.8h1l-4.3-9.3h-1l-4.3,9.3h1l1.1-2.5h5.2L19.9,136.8z M14,133.5l2.2-5l2.2,5H14z"
				/>
			<path id="XMLID_505_" class="st2" d="M33.8,127.5v7.6l-6-7.6H27v9.3h1v-7.6l6,7.6h0.8v-9.3H33.8z"/>
			<path id="XMLID_503_" class="st2" d="M48.9,135.3c-0.7,0.5-1.5,0.7-2.4,0.7c-2.3,0-4-1.7-4-3.9c0-2.2,1.7-3.9,4-3.9
				c1.1,0,2,0.3,2.8,1.1l0.6-0.6c-0.8-0.9-2-1.3-3.5-1.3c-2.8,0-4.9,2-4.9,4.7s2.1,4.7,4.9,4.7c1.3,0,2.5-0.4,3.4-1.2v-3.6h-0.9
				V135.3z"/>
			<path id="XMLID_501_" class="st2" d="M60.9,136.9c2.4,0,3.8-1.4,3.8-4.1v-5.3h-1v5.3c0,2.2-1,3.2-2.9,3.2c-1.8,0-2.8-1-2.8-3.2
				v-5.3h-1v5.3C57,135.5,58.5,136.9,60.9,136.9z"/>
			<path id="XMLID_498_" class="st2" d="M78.9,136.8h1l-4.3-9.3h-1l-4.3,9.3h1l1.1-2.5h5.2L78.9,136.8z M73,133.5l2.2-5l2.2,5H73z"
				/>
			<path id="XMLID_496_" class="st2" d="M92.4,135.3c-0.7,0.5-1.5,0.7-2.4,0.7c-2.3,0-4-1.7-4-3.9c0-2.2,1.7-3.9,4-3.9
				c1.1,0,2,0.3,2.8,1.1l0.6-0.6c-0.8-0.9-2-1.3-3.5-1.3c-2.8,0-4.9,2-4.9,4.7s2.1,4.7,4.9,4.7c1.3,0,2.5-0.4,3.4-1.2v-3.6h-0.9
				V135.3z"/>
			<path id="XMLID_494_" class="st2" d="M101.6,136v-3.5h4.8v-0.8h-4.8v-3.3h5.4v-0.9h-6.4v9.3h6.6V136H101.6z"/>
			<path id="XMLID_492_" class="st2" d="M124.6,136.9c2.4,0,3.5-1.2,3.5-2.5c0-3.4-5.7-1.9-5.7-4.4c0-0.9,0.8-1.7,2.5-1.7
				c0.8,0,1.8,0.3,2.6,0.8l0.3-0.8c-0.7-0.5-1.8-0.8-2.9-0.8c-2.4,0-3.4,1.2-3.4,2.6c0,3.5,5.7,1.9,5.7,4.4c0,0.9-0.8,1.7-2.5,1.7
				c-1.2,0-2.4-0.5-3.1-1.1l-0.4,0.8C121.9,136.4,123.2,136.9,124.6,136.9z"/>
			<path id="XMLID_490_" class="st2" d="M138.8,136.9c1.4,0,2.6-0.5,3.4-1.4l-0.6-0.6c-0.8,0.8-1.7,1.1-2.8,1.1
				c-2.2,0-3.9-1.7-3.9-3.9c0-2.2,1.7-3.9,3.9-3.9c1.1,0,2,0.3,2.8,1.1l0.6-0.6c-0.8-0.9-2-1.4-3.4-1.4c-2.8,0-4.9,2-4.9,4.7
				S136,136.9,138.8,136.9z"/>
			<path id="XMLID_488_" class="st2" d="M155.6,127.5v4.2h-5.8v-4.2h-1v9.3h1v-4.3h5.8v4.3h1v-9.3H155.6z"/>
			<path id="XMLID_485_" class="st2" d="M168.2,136.9c2.8,0,4.9-2,4.9-4.7s-2.1-4.7-4.9-4.7c-2.8,0-4.9,2-4.9,4.7
				S165.4,136.9,168.2,136.9z M168.2,136c-2.2,0-3.9-1.6-3.9-3.9c0-2.2,1.7-3.9,3.9-3.9c2.2,0,3.9,1.6,3.9,3.9
				C172.1,134.4,170.4,136,168.2,136z"/>
			<path id="XMLID_482_" class="st2" d="M183.9,136.9c2.8,0,4.9-2,4.9-4.7s-2.1-4.7-4.9-4.7c-2.8,0-4.9,2-4.9,4.7
				S181.1,136.9,183.9,136.9z M183.9,136c-2.2,0-3.9-1.6-3.9-3.9c0-2.2,1.7-3.9,3.9-3.9c2.2,0,3.9,1.6,3.9,3.9
				C187.8,134.4,186.1,136,183.9,136z"/>
			<path id="XMLID_480_" class="st2" d="M195.5,136.8h6.2V136h-5.2v-8.5h-1V136.8z"/>
		</g>
	</g>
</g>
<g id="Layer_2">
</g>
</svg>
